<?xml version="1.0" encoding="utf-8"?>
<!-- Generator: Adobe Illustrator 16.0.0, SVG Export Plug-In . SVG Version: 6.00 Build 0)  -->
<!DOCTYPE svg PUBLIC "-//W3C//DTD SVG 1.1//EN" "http://www.w3.org/Graphics/SVG/1.1/DTD/svg11.dtd">
<svg version="1.1" id="Layer_1" xmlns="http://www.w3.org/2000/svg" xmlns:xlink="http://www.w3.org/1999/xlink" x="0px" y="0px"
	 width="40px" height="40px" viewBox="0 0 40 40" enable-background="new 0 0 40 40" xml:space="preserve">
<g>
	<path d="M27.112,18.603c3.16,0,5.73-2.57,5.73-5.729s-2.57-5.729-5.73-5.729c-3.159,0-5.729,2.57-5.729,5.729
		S23.953,18.603,27.112,18.603z M27.112,9.943c1.617,0,2.932,1.314,2.932,2.93s-1.314,2.93-2.932,2.93
		c-1.615,0-2.931-1.314-2.931-2.93S25.497,9.943,27.112,9.943z"/>
	<path d="M24.105,27.28c0-1.657,1.349-3.008,3.007-3.008c1.659,0,3.008,1.35,3.008,3.008v5.653h2.799V27.28
		c0-3.201-2.605-5.806-5.806-5.806c-3.201,0-5.806,2.604-5.806,5.806v5.653h2.799L24.105,27.28L24.105,27.28z"/>
	<path d="M12.839,18.527c1.09,0,2.109-0.303,2.979-0.829v4.585c-0.858-0.513-1.861-0.809-2.932-0.809
		c-3.159,0-5.729,2.57-5.729,5.729s2.57,5.729,5.729,5.729c2.953,0,5.391-2.244,5.697-5.117h0.033V12.749v-1.42V7.132h-2.799v4.196
		v1.42c0,1.642-1.336,2.979-2.979,2.979c-1.643,0-2.979-1.336-2.979-2.979V7.133H7.061v5.616
		C7.062,15.935,9.653,18.527,12.839,18.527z M12.887,30.134c-1.616,0-2.931-1.314-2.931-2.931s1.314-2.931,2.931-2.931
		c1.616,0,2.932,1.314,2.932,2.931S14.503,30.134,12.887,30.134z"/>
	<path d="M0,0v40h40V0H0z M37.201,37.202H2.8V2.799h34.401V37.202L37.201,37.202z"/>
</g>
</svg>
