<?xml version="1.0" encoding="utf-8"?>
<!-- Generator: Adobe Illustrator 16.0.0, SVG Export Plug-In . SVG Version: 6.00 Build 0)  -->
<!DOCTYPE svg PUBLIC "-//W3C//DTD SVG 1.1//EN" "http://www.w3.org/Graphics/SVG/1.1/DTD/svg11.dtd">
<svg version="1.1" id="Layer_1" xmlns="http://www.w3.org/2000/svg" xmlns:xlink="http://www.w3.org/1999/xlink" x="0px" y="0px"
	 width="40px" height="40px" viewBox="0 0 40 40" enable-background="new 0 0 40 40" xml:space="preserve">
<rect width="40" height="40"/>
<path fill="#FFFFFF" d="M27.112,18.604c3.159,0,5.729-2.57,5.729-5.729s-2.57-5.729-5.729-5.729s-5.729,2.57-5.729,5.729
	S23.953,18.604,27.112,18.604z M27.112,9.944c1.616,0,2.93,1.314,2.93,2.931c0,1.615-1.314,2.931-2.93,2.931
	s-2.931-1.315-2.931-2.931C24.182,11.258,25.497,9.944,27.112,9.944z"/>
<path fill="#FFFFFF" d="M24.104,27.281c0-1.658,1.349-3.008,3.008-3.008c1.658,0,3.007,1.35,3.007,3.008v5.653h2.799v-5.653
	c0-3.201-2.605-5.806-5.806-5.806s-5.806,2.604-5.806,5.806v5.653h2.799L24.104,27.281L24.104,27.281z"/>
<path fill="#FFFFFF" d="M12.839,18.527c1.089,0,2.108-0.303,2.979-0.829v4.586c-0.858-0.513-1.86-0.809-2.931-0.809
	c-3.16,0-5.729,2.57-5.729,5.729s2.57,5.729,5.729,5.729c2.953,0,5.391-2.245,5.697-5.117h0.033V12.75v-1.42V7.133h-2.799v4.196
	v1.42c0,1.643-1.335,2.979-2.978,2.979c-1.644,0-2.979-1.336-2.979-2.979V7.134H7.061v5.615
	C7.062,15.935,9.653,18.527,12.839,18.527z M12.887,30.135c-1.616,0-2.931-1.314-2.931-2.931c0-1.615,1.315-2.931,2.931-2.931
	c1.616,0,2.93,1.315,2.93,2.931C15.817,28.821,14.502,30.135,12.887,30.135z"/>
</svg>
